<?xml version="1.0" standalone="no"?>
<!DOCTYPE svg PUBLIC "-//W3C//DTD SVG 20010904//EN"
 "http://www.w3.org/TR/2001/REC-SVG-20010904/DTD/svg10.dtd">
<svg version="1.0" xmlns="http://www.w3.org/2000/svg"
 width="512.000000pt" height="512.000000pt" viewBox="0 0 512.000000 512.000000"
 preserveAspectRatio="xMidYMid meet">

<g transform="translate(0.000000,512.000000) scale(0.100000,-0.100000)"
fill="#000000" stroke="none">
<path d="M5108 3685 c-10 -100 -49 -245 -96 -353 -66 -153 -135 -254 -262
-383 -156 -159 -304 -254 -498 -319 l-87 -29 -5 -990 c-6 -1112 1 -1026 -79
-1026 -36 0 -49 10 -172 126 -421 396 -583 548 -586 546 -1 -2 11 -48 28 -102
19 -65 27 -111 24 -132 -11 -63 -11 -63 -412 -63 -200 0 -363 -2 -363 -4 0
-23 63 -182 103 -260 177 -347 496 -588 890 -673 110 -24 357 -24 479 0 263
52 480 167 669 356 151 151 248 308 313 506 63 191 59 119 63 1405 4 1279 2
1510 -9 1395z"/>
<path d="M3525 2523 c-112 -27 -292 -108 -395 -178 -118 -79 -254 -213 -340
-334 -33 -46 -59 -85 -57 -87 7 -7 202 38 269 62 40 15 117 49 172 76 54 27
100 47 102 45 13 -12 -136 -132 -205 -166 -93 -45 -100 -64 -46 -133 20 -26
43 -49 51 -52 25 -10 162 13 235 38 90 31 182 92 253 166 l56 59 0 73 c0 133
-44 429 -65 434 -5 1 -19 -1 -30 -3z"/>
</g>
</svg>
