<?xml version="1.0" standalone="no"?>
<!DOCTYPE svg PUBLIC "-//W3C//DTD SVG 20010904//EN"
 "http://www.w3.org/TR/2001/REC-SVG-20010904/DTD/svg10.dtd">
<svg version="1.0" xmlns="http://www.w3.org/2000/svg"
 width="512.000000pt" height="512.000000pt" viewBox="0 0 512.000000 512.000000"
 preserveAspectRatio="xMidYMid meet">

<g transform="translate(0.000000,512.000000) scale(0.100000,-0.100000)"
fill="#000000" stroke="none">
<path d="M5112 3739 c-1 -26 -9 -84 -18 -130 -49 -261 -166 -481 -354 -669
-231 -231 -502 -351 -845 -375 l-101 -7 -104 -677 c-57 -372 -109 -698 -117
-724 -17 -58 -73 -123 -128 -148 -53 -24 -147 -24 -200 0 -22 10 -182 123
-355 251 l-315 232 -8 -53 c-5 -30 -6 -124 -4 -209 4 -121 11 -176 30 -250
127 -487 473 -829 967 -953 113 -28 380 -30 512 -4 269 54 499 178 680 366
181 187 285 384 345 651 15 67 17 195 20 1250 3 1056 1 1579 -5 1449z"/>
</g>
</svg>
