<?xml version="1.0" standalone="no"?>
<!DOCTYPE svg PUBLIC "-//W3C//DTD SVG 20010904//EN"
 "http://www.w3.org/TR/2001/REC-SVG-20010904/DTD/svg10.dtd">
<svg version="1.0" xmlns="http://www.w3.org/2000/svg"
 width="24" height="24" viewBox="0 0 24 24"
 preserveAspectRatio="xMidYMid meet">

<g transform="translate(0.000000,512.000000) scale(0.100000,-0.100000)"
fill="#000000" stroke="none">
<path d="M2220 5114 c-574 -16 -1284 -71 -1440 -110 -131 -33 -291 -120 -397
-217 -138 -127 -246 -324 -282 -517 -21 -112 -62 -610 -82 -1005 -16 -296 -16
-1113 0 -1410 25 -483 68 -958 97 -1075 20 -79 79 -209 130 -285 133 -202 363
-351 604 -393 134 -24 604 -62 1005 -83 297 -16 1114 -16 1410 0 408 21 890
61 1005 82 339 64 614 305 718 629 31 96 39 152 61 395 91 996 89 1932 -5
2930 -17 184 -27 244 -56 335 -104 325 -377 565 -718 629 -110 21 -627 63
-990 81 -214 10 -878 19 -1060 14z m481 -1644 c63 -12 96 -34 124 -81 19 -32
20 -53 20 -374 0 -381 2 -397 61 -403 28 -3 39 5 93 65 34 37 91 109 126 158
65 90 192 328 235 440 33 84 55 113 98 125 50 14 557 13 622 -1 90 -19 102
-79 42 -212 -41 -89 -82 -151 -268 -403 -164 -222 -214 -301 -214 -336 0 -35
22 -62 190 -233 229 -234 330 -372 330 -452 0 -49 -22 -80 -74 -104 -36 -17
-68 -19 -291 -19 -274 0 -335 8 -410 56 -22 15 -114 102 -205 194 -127 130
-172 170 -198 175 -71 14 -96 -31 -131 -234 -31 -177 -47 -186 -300 -178 -188
6 -280 24 -421 84 -110 46 -254 142 -354 235 -201 185 -449 559 -665 1003
-161 328 -174 372 -130 416 20 20 29 20 297 17 365 -4 318 25 461 -282 91
-194 258 -447 331 -501 99 -73 130 5 130 333 0 118 -5 222 -11 248 -15 58 -54
99 -110 115 -61 17 -76 32 -61 63 14 31 68 72 112 84 46 13 503 15 571 2z"/>
</g>
</svg>
